<?xml version="1.0" encoding="UTF-8"?>
<svg width="80" height="80" viewBox="0 0 80 80" 
     xmlns="http://www.w3.org/2000/svg">
  <rect width="100%" height="100%" fill="#1a1a2e"/>
    <rect x="30" y="0" width="10" height="10" fill="#667eea"/>
    <rect x="40" y="0" width="10" height="10" fill="#764ba2"/>
    <rect x="20" y="10" width="10" height="10" fill="#f093fb"/>
    <rect x="30" y="10" width="10" height="10" fill="#667eea"/>
    <rect x="40" y="10" width="10" height="10" fill="#764ba2"/>
    <rect x="50" y="10" width="10" height="10" fill="#f093fb"/>
    <rect x="30" y="20" width="10" height="10" fill="#667eea"/>
    <rect x="40" y="20" width="10" height="10" fill="#764ba2"/>
    <rect x="10" y="30" width="10" height="10" fill="#f093fb"/>
    <rect x="20" y="30" width="10" height="10" fill="#667eea"/>
    <rect x="30" y="30" width="10" height="10" fill="#764ba2"/>
    <rect x="40" y="30" width="10" height="10" fill="#f093fb"/>
    <rect x="50" y="30" width="10" height="10" fill="#667eea"/>
    <rect x="60" y="30" width="10" height="10" fill="#764ba2"/>
    <rect x="0" y="40" width="10" height="10" fill="#f093fb"/>
    <rect x="10" y="40" width="10" height="10" fill="#667eea"/>
    <rect x="20" y="40" width="10" height="10" fill="#764ba2"/>
    <rect x="30" y="40" width="10" height="10" fill="#f093fb"/>
    <rect x="40" y="40" width="10" height="10" fill="#667eea"/>
    <rect x="50" y="40" width="10" height="10" fill="#764ba2"/>
    <rect x="60" y="40" width="10" height="10" fill="#f093fb"/>
    <rect x="70" y="40" width="10" height="10" fill="#667eea"/>
    <rect x="0" y="50" width="10" height="10" fill="#764ba2"/>
    <rect x="10" y="50" width="10" height="10" fill="#f093fb"/>
    <rect x="20" y="50" width="10" height="10" fill="#667eea"/>
    <rect x="30" y="50" width="10" height="10" fill="#764ba2"/>
    <rect x="40" y="50" width="10" height="10" fill="#f093fb"/>
    <rect x="50" y="50" width="10" height="10" fill="#667eea"/>
    <rect x="60" y="50" width="10" height="10" fill="#764ba2"/>
    <rect x="70" y="50" width="10" height="10" fill="#f093fb"/>
    <rect x="10" y="60" width="10" height="10" fill="#667eea"/>
    <rect x="20" y="60" width="10" height="10" fill="#764ba2"/>
    <rect x="50" y="60" width="10" height="10" fill="#f093fb"/>
    <rect x="60" y="60" width="10" height="10" fill="#667eea"/>
    <rect x="10" y="70" width="10" height="10" fill="#764ba2"/>
    <rect x="20" y="70" width="10" height="10" fill="#f093fb"/>
    <rect x="50" y="70" width="10" height="10" fill="#667eea"/>
    <rect x="60" y="70" width="10" height="10" fill="#764ba2"/>
</svg>